<svg width="27" height="21" viewBox="0 0 27 21" fill="none" xmlns="http://www.w3.org/2000/svg">
<path d="M21.1914 20.1377H24.5107C25.6387 20.1377 26.208 19.5684 26.208 18.376V2.05859C26.208 0.866211 25.6387 0.286133 24.5107 0.286133H21.1914C20.0527 0.286133 19.4834 0.866211 19.4834 2.05859V18.376C19.4834 19.5684 20.0527 20.1377 21.1914 20.1377ZM11.8457 20.1377H15.165C16.293 20.1377 16.8623 19.5684 16.8623 18.376V5.1416C16.8623 3.94922 16.293 3.37988 15.165 3.37988H11.8457C10.707 3.37988 10.1377 3.94922 10.1377 5.1416V18.376C10.1377 19.5684 10.707 20.1377 11.8457 20.1377ZM2.5 20.1377H5.81934C6.94727 20.1377 7.5166 19.5684 7.5166 18.376V8.14941C7.5166 6.96777 6.94727 6.3877 5.81934 6.3877H2.5C1.36133 6.3877 0.791992 6.96777 0.791992 8.14941V18.376C0.791992 19.5684 1.36133 20.1377 2.5 20.1377Z" fill="white"/>
</svg>
