<svg width="20" height="21" viewBox="0 0 20 21" fill="none" xmlns="http://www.w3.org/2000/svg">
<path d="M10 10.5449C12.6641 10.5449 14.8125 8.22461 14.8125 5.3457C14.8125 2.53125 12.6533 0.253906 10 0.253906C7.35742 0.253906 5.1875 2.54199 5.19824 5.35645C5.20898 8.22461 7.33594 10.5449 10 10.5449ZM10 8.26758C8.65723 8.26758 7.54004 7.05371 7.5293 5.3457C7.51855 3.71289 8.66797 2.52051 10 2.52051C11.3535 2.52051 12.4707 3.70215 12.4707 5.3457C12.4707 7.04297 11.3535 8.26758 10 8.26758ZM3.39355 20.6104H16.6064C18.5723 20.6104 19.5498 19.9443 19.5498 18.5479C19.5498 15.3896 15.6504 11.6621 10 11.6621C4.33887 11.6621 0.450195 15.3896 0.450195 18.5479C0.450195 19.9443 1.42773 20.6104 3.39355 20.6104ZM3.30762 18.3438C3.10352 18.3438 3.03906 18.2578 3.03906 18.0967C3.03906 16.6572 5.57422 13.9287 10 13.9287C14.4258 13.9287 16.9609 16.6572 16.9609 18.0967C16.9609 18.2578 16.8965 18.3438 16.6816 18.3438H3.30762Z" fill="white"/>
</svg>
